<svg height="548" width="758.6999950408936" viewBox="0 0 758.6999950408936 548" xmlns="http://www.w3.org/2000/svg" version="1.1">
  
  
  <defs>
    <style class="style-fonts">
      @font-face {
        font-family: "Virgil";
        src: url("https://excalidraw.com/Virgil.woff2");
      }
      @font-face {
        font-family: "Cascadia";
        src: url("https://excalidraw.com/Cascadia.woff2");
      }
    </style>
    
  </defs>
  <rect fill="#ffffff" height="548" width="758.6999950408936" y="0" x="0"></rect><g transform="translate(139.4333324432373 10) rotate(0 304.6333312988281 264)"><text direction="ltr" style="white-space: pre;" text-anchor="start" fill="#1e1e1e" font-size="20px" font-family="Cascadia, Segoe UI Emoji" y="0" x="0">---</text><text direction="ltr" style="white-space: pre;" text-anchor="start" fill="#1e1e1e" font-size="20px" font-family="Cascadia, Segoe UI Emoji" y="24" x="0">- name: Update web servers</text><text direction="ltr" style="white-space: pre;" text-anchor="start" fill="#1e1e1e" font-size="20px" font-family="Cascadia, Segoe UI Emoji" y="48" x="0">&nbsp; hosts: webservers</text><text direction="ltr" style="white-space: pre;" text-anchor="start" fill="#1e1e1e" font-size="20px" font-family="Cascadia, Segoe UI Emoji" y="72" x="0">&nbsp; tasks:</text><text direction="ltr" style="white-space: pre;" text-anchor="start" fill="#1e1e1e" font-size="20px" font-family="Cascadia, Segoe UI Emoji" y="96" x="0">  - name: Ensure apache is at the latest version</text><text direction="ltr" style="white-space: pre;" text-anchor="start" fill="#1e1e1e" font-size="20px" font-family="Cascadia, Segoe UI Emoji" y="120" x="0">&nbsp; &nbsp; ansible.builtin.yum:</text><text direction="ltr" style="white-space: pre;" text-anchor="start" fill="#1e1e1e" font-size="20px" font-family="Cascadia, Segoe UI Emoji" y="144" x="0">&nbsp; &nbsp; &nbsp; name: httpd</text><text direction="ltr" style="white-space: pre;" text-anchor="start" fill="#1e1e1e" font-size="20px" font-family="Cascadia, Segoe UI Emoji" y="168" x="0">&nbsp; &nbsp; &nbsp; state: latest</text><text direction="ltr" style="white-space: pre;" text-anchor="start" fill="#1e1e1e" font-size="20px" font-family="Cascadia, Segoe UI Emoji" y="192" x="0">&nbsp; - name: Write the apache config file</text><text direction="ltr" style="white-space: pre;" text-anchor="start" fill="#1e1e1e" font-size="20px" font-family="Cascadia, Segoe UI Emoji" y="216" x="0">&nbsp; &nbsp; ansible.builtin.template:</text><text direction="ltr" style="white-space: pre;" text-anchor="start" fill="#1e1e1e" font-size="20px" font-family="Cascadia, Segoe UI Emoji" y="240" x="0">&nbsp; &nbsp; &nbsp; src: /srv/httpd.j2</text><text direction="ltr" style="white-space: pre;" text-anchor="start" fill="#1e1e1e" font-size="20px" font-family="Cascadia, Segoe UI Emoji" y="264" x="0">&nbsp; &nbsp; &nbsp; dest: /etc/httpd.conf</text><text direction="ltr" style="white-space: pre;" text-anchor="start" fill="#1e1e1e" font-size="20px" font-family="Cascadia, Segoe UI Emoji" y="288" x="0"></text><text direction="ltr" style="white-space: pre;" text-anchor="start" fill="#1e1e1e" font-size="20px" font-family="Cascadia, Segoe UI Emoji" y="312" x="0">- name: Update db servers</text><text direction="ltr" style="white-space: pre;" text-anchor="start" fill="#1e1e1e" font-size="20px" font-family="Cascadia, Segoe UI Emoji" y="336" x="0">&nbsp; hosts: databases</text><text direction="ltr" style="white-space: pre;" text-anchor="start" fill="#1e1e1e" font-size="20px" font-family="Cascadia, Segoe UI Emoji" y="360" x="0">&nbsp; remote_user: root</text><text direction="ltr" style="white-space: pre;" text-anchor="start" fill="#1e1e1e" font-size="20px" font-family="Cascadia, Segoe UI Emoji" y="384" x="0">&nbsp; tasks:</text><text direction="ltr" style="white-space: pre;" text-anchor="start" fill="#1e1e1e" font-size="20px" font-family="Cascadia, Segoe UI Emoji" y="408" x="0">&nbsp; - name: Ensure postgresql is at the latest version</text><text direction="ltr" style="white-space: pre;" text-anchor="start" fill="#1e1e1e" font-size="20px" font-family="Cascadia, Segoe UI Emoji" y="432" x="0">&nbsp; &nbsp; ansible.builtin.yum:</text><text direction="ltr" style="white-space: pre;" text-anchor="start" fill="#1e1e1e" font-size="20px" font-family="Cascadia, Segoe UI Emoji" y="456" x="0">&nbsp; &nbsp; &nbsp; name: postgresql</text><text direction="ltr" style="white-space: pre;" text-anchor="start" fill="#1e1e1e" font-size="20px" font-family="Cascadia, Segoe UI Emoji" y="480" x="0">&nbsp; &nbsp; &nbsp; state: latest</text><text direction="ltr" style="white-space: pre;" text-anchor="start" fill="#1e1e1e" font-size="20px" font-family="Cascadia, Segoe UI Emoji" y="504" x="0"></text></g><g stroke-linecap="round"><g transform="translate(69.43333244323719 295) rotate(0 -1.1062295691762074 -129.40732162036002)"><path fill="none" stroke-width="2" stroke="#e03131" d="M0.08 1.11 C-0.37 -42.15, -1.14 -216.22, -1.57 -259.92 M-1.34 0.64 C-2.01 -42.38, -1.93 -214.85, -2.29 -258.34"></path></g></g><mask></mask><g stroke-linecap="round"><g transform="translate(66.5395620124134 512.4073216203601) rotate(0 0.7268004413693916 -92.75584900276738)"><path fill="none" stroke-width="2" stroke="#e03131" d="M-0.61 -0.94 C-0.13 -32.08, 1.66 -155.95, 2.07 -186.69 M1.26 1.18 C1.68 -29.83, 1.2 -154.08, 1.16 -185.52"></path></g></g><mask></mask><g stroke-linecap="round"><g transform="translate(147.4333324432373 110) rotate(0 -0.42039989786684373 43.740058651193976)"><path fill="none" stroke-width="2" stroke="#1971c2" d="M0.43 -0.25 C0.74 26.03, -0.25 52.93, -1.5 87.73 M0.12 0.63 C1.37 25.2, 0.02 51.53, 0.19 86.84"></path></g></g><mask></mask><g stroke-linecap="round"><g transform="translate(146.8537323411042 206.25994134880602) rotate(0 0.3026714900556726 43.43148253625259)"><path fill="none" stroke-width="2" stroke="#1971c2" d="M0.49 0.07 C0.3 21.08, 1.18 42.52, 0.66 85.45 M-0.36 0.94 C1.02 27.96, 1.52 54.92, 0.18 86.79"></path></g></g><mask></mask><g stroke-linecap="round"><g transform="translate(145.13066095318163 425.5685174637474) rotate(0 -0.40526679752059636 43.386970336548984)"><path fill="none" stroke-width="2" stroke="#1971c2" d="M-0.04 1.26 C-0.73 21.71, -2.01 43.04, 0.23 85.6 M0.14 -0.19 C0.22 20.32, -0.69 42.39, -0.69 86.96"></path></g></g><mask></mask><g stroke-linecap="round"><g transform="translate(186.4333324432373 155) rotate(0 115.0371147058122 0.6074058838056544)"><path fill="none" stroke-width="2" stroke="#f08c00" d="M0.18 -0.39 C74.35 0.17, 148.56 2.44, 229.9 1.28 M0.27 0.75 C90.24 1.38, 178.67 1.7, 228.61 0.25"></path></g></g><mask></mask><g stroke-linecap="round"><g transform="translate(188.3962177374251 250.3925941161943) rotate(0 143.10295996434792 -0.02577653017499415)"><path fill="none" stroke-width="2" stroke="#f08c00" d="M0.07 0.13 C86.92 -0.97, 173.92 -0.55, 286.83 -0.39 M-0.62 -0.25 C59.81 1, 118.17 -0.21, 285.58 0.55"></path></g></g><mask></mask><g stroke-linecap="round"><g transform="translate(184.33037247888944 466.025776530175) rotate(0 115.37198519726638 1.060018005998245)"><path fill="none" stroke-width="2" stroke="#f08c00" d="M1.34 1.66 C48.94 1.52, 95.09 2.85, 230.94 1.86 M-0.19 0.02 C84.65 -0.21, 170.47 -0.31, 229.46 1.4"></path></g></g><mask></mask><g transform="translate(11.433332443237305 158) rotate(0 23.433332443237305 12)"><text direction="ltr" style="white-space: pre;" text-anchor="start" fill="#e03131" font-size="20px" font-family="Cascadia, Segoe UI Emoji" y="0" x="0">Play</text></g><g transform="translate(10 413) rotate(0 23.433332443237305 12)"><text direction="ltr" style="white-space: pre;" text-anchor="start" fill="#e03131" font-size="20px" font-family="Cascadia, Segoe UI Emoji" y="0" x="0">Play</text></g><g transform="translate(76.4333324432373 146) rotate(0 29.29166603088379 12)"><text direction="ltr" style="white-space: pre;" text-anchor="start" fill="#1971c2" font-size="20px" font-family="Cascadia, Segoe UI Emoji" y="0" x="0">Tâche</text></g><g transform="translate(78.14166641235352 236) rotate(0 29.29166603088379 12)"><text direction="ltr" style="white-space: pre;" text-anchor="start" fill="#1971c2" font-size="20px" font-family="Cascadia, Segoe UI Emoji" y="0" x="0">Tâche</text></g><g transform="translate(77.14166641235352 457) rotate(0 29.29166603088379 12)"><text direction="ltr" style="white-space: pre;" text-anchor="start" fill="#1971c2" font-size="20px" font-family="Cascadia, Segoe UI Emoji" y="0" x="0">Tâche</text></g><g transform="translate(427.4333324432373 142) rotate(0 35.150001525878906 12)"><text direction="ltr" style="white-space: pre;" text-anchor="start" fill="#f08c00" font-size="20px" font-family="Cascadia, Segoe UI Emoji" y="0" x="0">Module</text></g><g transform="translate(484.2833309173584 238) rotate(0 35.150001525878906 12)"><text direction="ltr" style="white-space: pre;" text-anchor="start" fill="#f08c00" font-size="20px" font-family="Cascadia, Segoe UI Emoji" y="0" x="0">Module</text></g><g transform="translate(427.2833309173584 454) rotate(0 35.150001525878906 12)"><text direction="ltr" style="white-space: pre;" text-anchor="start" fill="#f08c00" font-size="20px" font-family="Cascadia, Segoe UI Emoji" y="0" x="0">Module</text></g></svg>